<svg width="123" height="30" viewBox="0 0 123 30" xmlns="http://www.w3.org/2000/svg" xmlns:xlink="http://www.w3.org/1999/xlink"><title>logo</title><defs><path id="a" d="M19.202.038H.003V21.09h19.2V.038z"/><path id="c" d="M19.473.038H.273V21.09h19.2V.038z"/><path id="e" d="M.747.038h19.644v21.05H.747V.039z"/><path id="g" d="M5.554.115v4.852H.667V.115h4.887z"/></defs><g fill="#fff" fill-rule="evenodd"><path d="M10.929 16.606c-3.009 0-5.2-2.273-5.2-5.462 0-3.15 2.191-5.422 5.2-5.422 3.008 0 5.198 2.272 5.198 5.422 0 3.19-2.19 5.462-5.198 5.462zm5.198-12.639c-1.299-1.873-3.305-3.03-5.941-3.03C4.913.937.938 5.562.938 11.144c0 5.621 3.975 10.207 9.248 10.207 2.636 0 4.642-1.157 5.941-3.031v2.153c0 3.15-1.856 4.903-4.864 4.903-2.86 0-4.085-1.235-4.865-2.79l-4.085 2.512c1.634 3.23 4.828 4.863 8.802 4.863 4.902 0 9.692-2.949 9.692-9.488V1.496h-4.68v2.471z"/><g transform="translate(23.473 .9)"><mask id="b"><use xlink:href="#a"/></mask><path d="M4.942 8.69C5.5 6.138 7.244 4.663 9.808 4.663c2.003 0 4.01 1.156 4.604 4.027h-9.47zM9.808.038C3.977.038.003 4.623.003 10.563c0 5.941 3.936 10.527 10.174 10.527 3.566 0 6.351-1.557 8.097-4.267l-3.862-2.393c-.818 1.156-2.303 1.995-4.16 1.995-2.524 0-4.567-1.117-5.236-3.749h14a12.75 12.75 0 0 0 .186-2.113c0-5.86-3.899-10.525-9.394-10.525z" mask="url(#b)"/></g><path d="M55.631.938c-2.488 0-4.42.996-5.534 2.79V1.496h-4.79V21.43h4.79V10.665c0-3.468 1.746-4.942 4.086-4.942 2.154 0 3.677 1.394 3.677 4.105v11.601h4.79V9.19c0-5.303-3.083-8.252-7.019-8.252"/><g transform="translate(64.786 .9)"><mask id="d"><use xlink:href="#c"/></mask><path d="M5.212 8.69c.557-2.552 2.303-4.027 4.865-4.027 2.006 0 4.01 1.156 4.605 4.027h-9.47zM10.077.038C4.247.038.273 4.623.273 10.563c0 5.941 3.938 10.527 10.176 10.527 3.565 0 6.35-1.557 8.094-4.267l-3.861-2.393c-.816 1.156-2.302 1.995-4.16 1.995-2.525 0-4.567-1.117-5.235-3.749h14c.11-.677.186-1.354.186-2.113 0-5.86-3.9-10.525-9.396-10.525z" mask="url(#d)"/></g><path d="M91.682 4.925V1.496h-4.791V21.43h4.791v-9.528c0-4.185 3.157-5.383 5.645-5.063V1.097c-2.339 0-4.68 1.115-5.645 3.828"/><g transform="translate(97.649 .9)"><mask id="f"><use xlink:href="#e"/></mask><path d="M10.55 16.066c-2.822 0-5.013-2.273-5.013-5.503 0-3.228 2.191-5.5 5.014-5.5 2.859 0 5.05 2.272 5.05 5.5 0 3.23-2.191 5.503-5.05 5.503m0-16.028C5.09.038.747 4.623.747 10.563c0 5.941 4.345 10.526 9.804 10.526 5.458 0 9.84-4.585 9.84-10.526 0-5.94-4.382-10.525-9.84-10.525" mask="url(#f)"/></g><g transform="translate(117.366 .9)"><mask id="h"><use xlink:href="#g"/></mask><path d="M5.367 1.594A2.408 2.408 0 0 0 4.058.3a2.52 2.52 0 0 0-.96-.185A2.35 2.35 0 0 0 1.374.82a2.338 2.338 0 0 0-.708 1.72c0 .675.236 1.249.708 1.72a2.342 2.342 0 0 0 1.722.706c.338 0 .658-.063.962-.187a2.377 2.377 0 0 0 1.308-1.292c.124-.295.187-.61.187-.947a2.4 2.4 0 0 0-.187-.947" mask="url(#h)"/></g></g></svg>