<?xml version="1.0" encoding="utf-8"?>
<!-- Generator: Adobe Illustrator 24.2.0, SVG Export Plug-In . SVG Version: 6.00 Build 0)  -->
<svg version="1.1" id="Layer_1" xmlns="http://www.w3.org/2000/svg" xmlns:xlink="http://www.w3.org/1999/xlink" x="0px" y="0px"
	 viewBox="0 0 567.1 171.4" style="enable-background:new 0 0 567.1 171.4;" xml:space="preserve">
<g>
	<g>
		<path d="M70.6,38.9v11.5c-6-8.7-15.4-14.1-27.6-14.1c-24.5,0-43,21.5-43,47.5c0,26.2,18.5,47.5,43,47.5c12.3,0,21.6-5.4,27.6-14.1
			v10C70.6,141.9,62,150,48,150c-13.3,0-19-5.8-22.6-13l-19,11.7c7.6,15,22.4,22.6,40.9,22.6c22.8,0,45-13.7,45-44.2V38.9H70.6z
			 M46.4,109.2c-14,0-24.2-10.6-24.2-25.4c0-14.7,10.2-25.2,24.2-25.2c14,0,24.2,10.6,24.2,25.2C70.6,98.6,60.4,109.2,46.4,109.2z"
			/>
	</g>
	<g>
		<path d="M194.1,84.9c0.1-27.3-18-49-43.5-49.1c-27.1-0.1-45.6,21.2-45.7,48.9c-0.1,27.7,18.2,49,47.2,49.1
			c16.6,0,29.5-7.2,37.7-19.8l-17.9-11.2c-3.8,5.4-10.7,9.3-19.4,9.2c-11.7,0-21.2-5.3-24.3-17.5l65.1,0.2
			C193.8,91.6,194.1,88.5,194.1,84.9z M127.9,76.1c2.6-11.9,10.7-18.7,22.7-18.7c9.3,0,18.6,5.4,21.4,18.8L127.9,76.1z"/>
	</g>
	<path d="M254.5,36.1c-11.6,0-20.6,4.6-25.7,12.9l0-10.4l-22.3-0.1l-0.2,92.8l22.3,0.1l0.1-50.1c0-16.1,8.2-23,19-23
		c10,0,17.1,6.5,17,19.2l-0.1,54l22.3,0.1l0.1-57C287,49.9,272.7,36.1,254.5,36.1z"/>
	<g>
		<path d="M387.4,85.4c0.1-27.3-18-49-43.5-49.1c-27.1-0.1-45.6,21.2-45.7,48.9c-0.1,27.7,18.2,49,47.2,49.1
			c16.6,0,29.5-7.2,37.7-19.8l-17.9-11.2c-3.8,5.4-10.7,9.3-19.4,9.2c-11.7,0-21.2-5.3-24.3-17.5l65.1,0.2
			C387,92.1,387.4,88.9,387.4,85.4z M321.1,76.5c2.6-11.9,10.7-18.7,22.7-18.7c9.3,0,18.6,5.4,21.4,18.8L321.1,76.5z"/>
	</g>
	<path d="M422,55.1l0-16l-22.3-0.1l-0.2,92.8l22.3,0.1l0.1-44.4c0-19.5,14.7-25,26.3-23.5l0.1-26.7C437.4,37.3,426.5,42.5,422,55.1z
		"/>
	<g>
		<path d="M498.8,36.7c-25.4-0.1-45.6,21.2-45.7,48.9c-0.1,27.7,20.1,49,45.4,49.1c25.4,0.1,45.8-21.2,45.9-48.9
			C544.4,58.2,524.1,36.8,498.8,36.7z M498.6,111.3c-13.1,0-23.3-10.6-23.2-25.7c0-15,10.2-25.6,23.4-25.5
			c13.3,0,23.4,10.6,23.4,25.7C522.1,100.8,511.9,111.3,498.6,111.3z"/>
	</g>
	<path d="M566.3,44.1c-0.6-1.4-1.4-2.6-2.4-3.6c-1-1-2.3-1.8-3.7-2.4c-1.4-0.6-2.9-0.9-4.5-0.9c-3.1,0-5.8,1.1-8,3.3
		c-2.2,2.2-3.3,4.9-3.3,8c0,3.1,1.1,5.8,3.3,8c2.2,2.2,4.9,3.3,8,3.3c1.6,0,3.1-0.3,4.5-0.9c1.4-0.6,2.6-1.4,3.7-2.4
		c1-1,1.8-2.2,2.4-3.6c0.6-1.4,0.9-2.8,0.9-4.4C567.1,46.9,566.9,45.5,566.3,44.1z"/>
</g>
</svg>
